{
  "accessors": [
    {
      "bufferView": 2,
      "componentType": 5126,
      "count": 74,
      "max": [
        36.008304595947266,
        19.875049591064453,
        79.5
      ],
      "min": [
        -35.991687774658203,
        18.859825134277344,
        1.9999999949504854e-06
      ],
      "type": "VEC3"
    },
    {
      "bufferView": 2,
      "byteOffset": 888,
      "componentType": 5126,
      "count": 74,
      "max": [
        1,
        1,
        1
      ],
      "min": [
        -1,
        -0.00019999999494757503,
        -1
      ],
      "type": "VEC3"
    },
    {
      "bufferView": 3,
      "componentType": 5126,
      "count": 74,
      "max": [
        -0.00019999999494757503,
        0.00020000002405140549,
        0.18349263072013855,
        1
      ],
      "min": [
        -1,
        -1,
        -0.23684942722320557,
        -1
      ],
      "type": "VEC4"
    },
    {
      "bufferView": 1,
      "componentType": 5126,
      "count": 74,
      "max": [
        0.97900098562240601,
        0.99953699111938477
      ],
      "min": [
        0.024498000741004944,
        -0.00063000002410262823
      ],
      "type": "VEC2"
    },
    {
      "bufferView": 0,
      "componentType": 5125,
      "count": 174,
      "max": [
        73
      ],
      "min": [
        0
      ],
      "type": "SCALAR"
    },
    {
      "bufferView": 2,
      "byteOffset": 1776,
      "componentType": 5126,
      "count": 53529,
      "max": [
        36.703884124755859,
        19.875049591064453,
        79.5
      ],
      "min": [
        -36.704029083251953,
        -21.92962646484375,
        -1.9999999949504854e-06
      ],
      "type": "VEC3"
    },
    {
      "bufferView": 2,
      "byteOffset": 644124,
      "componentType": 5126,
      "count": 53529,
      "max": [
        1,
        1,
        1
      ],
      "min": [
        -1,
        -1,
        -1
      ],
      "type": "VEC3"
    },
    {
      "bufferView": 3,
      "byteOffset": 1184,
      "componentType": 5126,
      "count": 53529,
      "max": [
        1,
        1,
        1,
        1
      ],
      "min": [
        -1,
        -1,
        -1,
        -1
      ],
      "type": "VEC4"
    },
    {
      "bufferView": 1,
      "byteOffset": 592,
      "componentType": 5126,
      "count": 53529,
      "max": [
        0.99750900268554688,
        0.99796897172927856
      ],
      "min": [
        0.0020220000296831131,
        0.0020230000372976065
      ],
      "type": "VEC2"
    },
    {
      "bufferView": 0,
      "byteOffset": 696,
      "componentType": 5125,
      "count": 245574,
      "max": [
        53528
      ],
      "min": [
        0
      ],
      "type": "SCALAR"
    },
    {
      "bufferView": 2,
      "byteOffset": 1286472,
      "componentType": 5126,
      "count": 463,
      "max": [
        4.8054327964782715,
        20.366989135742188,
        79.483772277832031
      ],
      "min": [
        2.1945359706878662,
        13.862837791442871,
        76.083770751953125
      ],
      "type": "VEC3"
    },
    {
      "bufferView": 2,
      "byteOffset": 1292028,
      "componentType": 5126,
      "count": 463,
      "max": [
        0.99999856948852539,
        0.99999856948852539,
        1
      ],
      "min": [
        -0.99999856948852539,
        -0.99999880790710449,
        -1
      ],
      "type": "VEC3"
    },
    {
      "bufferView": 0,
      "byteOffset": 982992,
      "componentType": 5125,
      "count": 672,
      "max": [
        462
      ],
      "min": [
        0
      ],
      "type": "SCALAR"
    },
    {
      "bufferView": 2,
      "byteOffset": 1297584,
      "componentType": 5126,
      "count": 549,
      "max": [
        38.499980926513672,
        19.875595092773438,
        82
      ],
      "min": [
        -38.310199737548828,
        -22.04022216796875,
        79.5
      ],
      "type": "VEC3"
    },
    {
      "bufferView": 2,
      "byteOffset": 1304172,
      "componentType": 5126,
      "count": 549,
      "max": [
        1,
        1,
        1
      ],
      "min": [
        -1,
        -0.99995303153991699,
        -1
      ],
      "type": "VEC3"
    },
    {
      "bufferView": 3,
      "byteOffset": 857648,
      "componentType": 5126,
      "count": 549,
      "max": [
        0.90579062700271606,
        1,
        1,
        1
      ],
      "min": [
        -0.97552132606506348,
        -0.96802389621734619,
        -1,
        1
      ],
      "type": "VEC4"
    },
    {
      "bufferView": 1,
      "byteOffset": 428824,
      "componentType": 5126,
      "count": 549,
      "max": [
        1.4996249675750732,
        1.3622159957885742
      ],
      "min": [
        -0.49962499737739563,
        -0.45382198691368103
      ],
      "type": "VEC2"
    },
    {
      "bufferView": 0,
      "byteOffset": 985680,
      "componentType": 5125,
      "count": 2169,
      "max": [
        548
      ],
      "min": [
        0
      ],
      "type": "SCALAR"
    }
  ],
  "asset": {
    "extras": {
      "author": "Interiors3D (https://sketchfab.com/Interiors3D)",
      "license": "CC-BY-4.0 (http://creativecommons.org/licenses/by/4.0/)",
      "source": "https://sketchfab.com/3d-models/dql100-460f9ce90f2f49e6a0d8e2e55d25b5ea",
      "title": "DQL100"
    },
    "generator": "Sketchfab-9.85.0",
    "version": "2.0"
  },
  "bufferViews": [
    {
      "buffer": 0,
      "byteLength": 994356,
      "byteOffset": 0,
      "name": "floatBufferViews",
      "target": 34963
    },
    {
      "buffer": 0,
      "byteLength": 433216,
      "byteOffset": 994356,
      "byteStride": 8,
      "name": "floatBufferViews",
      "target": 34962
    },
    {
      "buffer": 0,
      "byteLength": 1310760,
      "byteOffset": 1427572,
      "byteStride": 12,
      "name": "floatBufferViews",
      "target": 34962
    },
    {
      "buffer": 0,
      "byteLength": 866432,
      "byteOffset": 2738332,
      "byteStride": 16,
      "name": "floatBufferViews",
      "target": 34962
    }
  ],
  "buffers": [
    {
      "byteLength": 3604764,
      "uri": "scene.bin"
    }
  ],
  "images": [
    {
      "uri": "textures/Back_baseColor.jpeg"
    },
    {
      "uri": "textures/Back_metallicRoughness.png"
    },
    {
      "uri": "textures/Back_normal.png"
    },
    {
      "uri": "textures/Chateau_baseColor.jpeg"
    },
    {
      "uri": "textures/Chateau_metallicRoughness.png"
    },
    {
      "uri": "textures/Chateau_normal.png"
    },
    {
      "uri": "textures/material_baseColor.jpeg"
    },
    {
      "uri": "textures/material_metallicRoughness.png"
    },
    {
      "uri": "textures/material_normal.png"
    }
  ],
  "materials": [
    {
      "doubleSided": true,
      "name": "Back",
      "normalTexture": {
        "index": 2,
        "scale": 1,
        "texCoord": 0
      },
      "pbrMetallicRoughness": {
        "baseColorFactor": [
          1,
          1,
          1,
          1
        ],
        "baseColorTexture": {
          "index": 0,
          "texCoord": 0
        },
        "metallicFactor": 0,
        "metallicRoughnessTexture": {
          "index": 1,
          "texCoord": 0
        },
        "roughnessFactor": 1
      }
    },
    {
      "doubleSided": true,
      "name": "Chateau",
      "normalTexture": {
        "index": 5,
        "scale": 1,
        "texCoord": 0
      },
      "pbrMetallicRoughness": {
        "baseColorFactor": [
          1,
          1,
          1,
          1
        ],
        "baseColorTexture": {
          "index": 3,
          "texCoord": 0
        },
        "metallicFactor": 0,
        "metallicRoughnessTexture": {
          "index": 4,
          "texCoord": 0
        },
        "roughnessFactor": 1
      }
    },
    {
      "doubleSided": true,
      "name": "Metal.001",
      "pbrMetallicRoughness": {
        "baseColorFactor": [
          0.34493000000000001,
          0.34493000000000001,
          0.34493000000000001,
          1
        ],
        "metallicFactor": 1,
        "roughnessFactor": 0.29999999999999999
      }
    },
    {
      "doubleSided": true,
      "name": "material",
      "normalTexture": {
        "index": 8,
        "scale": 1,
        "texCoord": 0
      },
      "pbrMetallicRoughness": {
        "baseColorFactor": [
          1,
          1,
          1,
          1
        ],
        "baseColorTexture": {
          "index": 6,
          "texCoord": 0
        },
        "metallicFactor": 0,
        "metallicRoughnessTexture": {
          "index": 7,
          "texCoord": 0
        },
        "roughnessFactor": 1
      }
    }
  ],
  "meshes": [
    {
      "primitives": [
        {
          "attributes": {
            "NORMAL": 1,
            "POSITION": 0,
            "TANGENT": 2,
            "TEXCOORD_0": 3
          },
          "indices": 4,
          "material": 0,
          "mode": 4
        }
      ]
    },
    {
      "primitives": [
        {
          "attributes": {
            "NORMAL": 6,
            "POSITION": 5,
            "TANGENT": 7,
            "TEXCOORD_0": 8
          },
          "indices": 9,
          "material": 1,
          "mode": 4
        }
      ]
    },
    {
      "primitives": [
        {
          "attributes": {
            "NORMAL": 11,
            "POSITION": 10
          },
          "indices": 12,
          "material": 2,
          "mode": 4
        }
      ]
    },
    {
      "primitives": [
        {
          "attributes": {
            "NORMAL": 14,
            "POSITION": 13,
            "TANGENT": 15,
            "TEXCOORD_0": 16
          },
          "indices": 17,
          "material": 3,
          "mode": 4
        }
      ]
    }
  ],
  "nodes": [
    {
      "children": [
        1
      ],
      "name": "RootNode (gltf orientation matrix)",
      "rotation": [
        -0.70710678118654746,
        -0,
        -0,
        0.70710678118654757
      ]
    },
    {
      "children": [
        2
      ],
      "name": "RootNode (model correction matrix)"
    },
    {
      "children": [
        3,
        4,
        5,
        6
      ],
      "name": "W50 - DQL100 - Sketchfab - mesh.obj.cleaner.materialmerger.gles"
    },
    {
      "mesh": 0,
      "name": ""
    },
    {
      "mesh": 1,
      "name": ""
    },
    {
      "mesh": 2,
      "name": ""
    },
    {
      "mesh": 3,
      "name": ""
    }
  ],
  "samplers": [
    {
      "magFilter": 9729,
      "minFilter": 9987,
      "wrapS": 10497,
      "wrapT": 10497
    }
  ],
  "scene": 0,
  "scenes": [
    {
      "name": "OSG_Scene",
      "nodes": [
        0
      ]
    }
  ],
  "textures": [
    {
      "sampler": 0,
      "source": 0
    },
    {
      "sampler": 0,
      "source": 1
    },
    {
      "sampler": 0,
      "source": 2
    },
    {
      "sampler": 0,
      "source": 3
    },
    {
      "sampler": 0,
      "source": 4
    },
    {
      "sampler": 0,
      "source": 5
    },
    {
      "sampler": 0,
      "source": 6
    },
    {
      "sampler": 0,
      "source": 7
    },
    {
      "sampler": 0,
      "source": 8
    }
  ]
}

